<svg width="43" height="37" viewBox="0 0 43 37" fill="none" xmlns="http://www.w3.org/2000/svg">
<g clip-path="url(#clip0)">
<path d="M1.09998 3.10001L4.09998 35.1H39.1L41.1 1.10001L1.09998 3.10001Z" stroke="white" stroke-width="2" stroke-miterlimit="10"/>
<path d="M29.6 20.1H12.6C11.8 20.1 11.1 19.4 11.1 18.6C11.1 17.8 11.8 17.1 12.6 17.1H29.6C30.4 17.1 31.1 17.8 31.1 18.6C31.1 19.4 30.4 20.1 29.6 20.1Z" fill="white"/>
<path d="M29.6 13.1H12.6C11.8 13.1 11.1 12.4 11.1 11.6C11.1 10.8 11.8 10.1 12.6 10.1H29.6C30.4 10.1 31.1 10.8 31.1 11.6C31.1 12.4 30.4 13.1 29.6 13.1Z" fill="white"/>
<path d="M29.6 27.1H12.6C11.8 27.1 11.1 26.4 11.1 25.6C11.1 24.8 11.8 24.1 12.6 24.1H29.6C30.4 24.1 31.1 24.8 31.1 25.6C31.1 26.4 30.4 27.1 29.6 27.1Z" fill="white"/>
</g>
<defs>
<clipPath id="clip0">
<rect width="42.2" height="36.1" fill="white"/>
</clipPath>
</defs>
</svg>
